<svg width="143" height="30" viewBox="0 0 143 30" fill="none" xmlns="http://www.w3.org/2000/svg">
<path d="M38.9631 23H35.5881L41.733 5.54545H45.6364L51.7898 23H48.4148L43.7528 9.125H43.6165L38.9631 23ZM39.0739 16.1562H48.2784V18.696H39.0739V16.1562ZM64.0881 13.3693L61.2756 13.6761C61.196 13.392 61.0568 13.125 60.858 12.875C60.6648 12.625 60.4034 12.4233 60.0739 12.2699C59.7443 12.1165 59.3409 12.0398 58.8636 12.0398C58.2216 12.0398 57.6818 12.179 57.2443 12.4574C56.8125 12.7358 56.5994 13.0966 56.6051 13.5398C56.5994 13.9205 56.7386 14.2301 57.0227 14.4688C57.3125 14.7074 57.7898 14.9034 58.4545 15.0568L60.6875 15.5341C61.9261 15.8011 62.8466 16.2244 63.4489 16.804C64.0568 17.3835 64.3636 18.142 64.3693 19.0795C64.3636 19.9034 64.1222 20.6307 63.6449 21.2614C63.1733 21.8864 62.517 22.375 61.6761 22.7273C60.8352 23.0795 59.8693 23.2557 58.7784 23.2557C57.1761 23.2557 55.8864 22.9205 54.9091 22.25C53.9318 21.5739 53.3494 20.6335 53.1619 19.429L56.1705 19.1392C56.3068 19.7301 56.5966 20.1761 57.0398 20.4773C57.483 20.7784 58.0597 20.929 58.7699 20.929C59.5028 20.929 60.0909 20.7784 60.5341 20.4773C60.983 20.1761 61.2074 19.804 61.2074 19.3608C61.2074 18.9858 61.0625 18.6761 60.7727 18.4318C60.4886 18.1875 60.0455 18 59.4432 17.8693L57.2102 17.4006C55.9545 17.1392 55.0256 16.6989 54.4233 16.0795C53.821 15.4545 53.5227 14.6648 53.5284 13.7102C53.5227 12.9034 53.7415 12.2045 54.1847 11.6136C54.6335 11.017 55.2557 10.5568 56.0511 10.233C56.8523 9.90341 57.7756 9.73864 58.821 9.73864C60.3551 9.73864 61.5625 10.0653 62.4432 10.7188C63.3295 11.3722 63.8778 12.2557 64.0881 13.3693ZM69.7259 18.892L69.7173 15.1676H70.2116L74.9162 9.90909H78.5213L72.7344 16.3523H72.0952L69.7259 18.892ZM66.9134 23V5.54545H69.9986V23H66.9134ZM75.1293 23L70.8679 17.0426L72.9474 14.8693L78.8196 23H75.1293ZM80.7138 23V5.54545H87.2592C88.6001 5.54545 89.7251 5.79545 90.6342 6.29545C91.549 6.79545 92.2393 7.48295 92.7053 8.35795C93.1768 9.22727 93.4126 10.2159 93.4126 11.3239C93.4126 12.4432 93.1768 13.4375 92.7053 14.3068C92.2337 15.1761 91.5376 15.8608 90.6172 16.3608C89.6967 16.8551 88.5632 17.1023 87.2166 17.1023H82.8786V14.5028H86.7905C87.5746 14.5028 88.2166 14.3665 88.7166 14.0938C89.2166 13.821 89.5859 13.446 89.8246 12.9688C90.0689 12.4915 90.1911 11.9432 90.1911 11.3239C90.1911 10.7045 90.0689 10.1591 89.8246 9.6875C89.5859 9.21591 89.2138 8.84943 88.7081 8.58807C88.2081 8.32102 87.5632 8.1875 86.7734 8.1875H83.8757V23H80.7138ZM96.0227 23V9.90909H99.0142V12.0909H99.1506C99.3892 11.3352 99.7983 10.7528 100.378 10.3438C100.963 9.92898 101.631 9.72159 102.381 9.72159C102.551 9.72159 102.741 9.73011 102.952 9.74716C103.168 9.75852 103.347 9.77841 103.489 9.80682V12.6449C103.358 12.5994 103.151 12.5597 102.866 12.5256C102.588 12.4858 102.318 12.4659 102.057 12.4659C101.494 12.4659 100.989 12.5881 100.54 12.8324C100.097 13.071 99.7472 13.4034 99.4915 13.8295C99.2358 14.2557 99.108 14.7472 99.108 15.304V23H96.0227ZM110.71 23.2557C109.431 23.2557 108.323 22.9744 107.386 22.4119C106.448 21.8494 105.721 21.0625 105.204 20.0511C104.692 19.0398 104.437 17.858 104.437 16.5057C104.437 15.1534 104.692 13.9687 105.204 12.9517C105.721 11.9347 106.448 11.1449 107.386 10.5824C108.323 10.0199 109.431 9.73864 110.71 9.73864C111.988 9.73864 113.096 10.0199 114.033 10.5824C114.971 11.1449 115.695 11.9347 116.207 12.9517C116.724 13.9687 116.982 15.1534 116.982 16.5057C116.982 17.858 116.724 19.0398 116.207 20.0511C115.695 21.0625 114.971 21.8494 114.033 22.4119C113.096 22.9744 111.988 23.2557 110.71 23.2557ZM110.727 20.7841C111.42 20.7841 111.999 20.5937 112.465 20.2131C112.931 19.8267 113.278 19.3097 113.505 18.6619C113.738 18.0142 113.854 17.2926 113.854 16.4972C113.854 15.696 113.738 14.9716 113.505 14.3239C113.278 13.6705 112.931 13.1506 112.465 12.7642C111.999 12.3778 111.42 12.1847 110.727 12.1847C110.016 12.1847 109.425 12.3778 108.954 12.7642C108.488 13.1506 108.138 13.6705 107.906 14.3239C107.678 14.9716 107.565 15.696 107.565 16.4972C107.565 17.2926 107.678 18.0142 107.906 18.6619C108.138 19.3097 108.488 19.8267 108.954 20.2131C109.425 20.5937 110.016 20.7841 110.727 20.7841ZM125.294 28.1818C124.186 28.1818 123.234 28.0313 122.439 27.7301C121.643 27.4347 121.004 27.0369 120.521 26.5369C120.038 26.0369 119.703 25.483 119.516 24.875L122.294 24.2017C122.419 24.4574 122.601 24.7102 122.839 24.9602C123.078 25.2159 123.399 25.4261 123.803 25.5909C124.212 25.7614 124.726 25.8466 125.345 25.8466C126.22 25.8466 126.945 25.6335 127.518 25.2074C128.092 24.7869 128.379 24.0938 128.379 23.1278V20.6477H128.226C128.067 20.9659 127.834 21.2926 127.527 21.6278C127.226 21.9631 126.825 22.2443 126.325 22.4716C125.831 22.6989 125.209 22.8125 124.459 22.8125C123.453 22.8125 122.541 22.5767 121.723 22.1051C120.911 21.6278 120.263 20.9176 119.78 19.9744C119.303 19.0256 119.064 17.8381 119.064 16.4119C119.064 14.9744 119.303 13.7614 119.78 12.7727C120.263 11.7784 120.913 11.0256 121.732 10.5142C122.55 9.99716 123.462 9.73864 124.467 9.73864C125.234 9.73864 125.865 9.86932 126.359 10.1307C126.859 10.3864 127.257 10.696 127.553 11.0597C127.848 11.4176 128.072 11.7557 128.226 12.0739H128.396V9.90909H131.439V23.2131C131.439 24.3324 131.172 25.2585 130.638 25.9915C130.104 26.7244 129.374 27.2727 128.447 27.6364C127.521 28 126.47 28.1818 125.294 28.1818ZM125.32 20.392C125.973 20.392 126.53 20.233 126.99 19.9148C127.45 19.5966 127.8 19.1392 128.038 18.5426C128.277 17.946 128.396 17.2301 128.396 16.3949C128.396 15.571 128.277 14.8494 128.038 14.2301C127.805 13.6108 127.459 13.1307 126.999 12.7898C126.544 12.4432 125.984 12.2699 125.32 12.2699C124.632 12.2699 124.058 12.4489 123.598 12.8068C123.138 13.1648 122.791 13.6562 122.558 14.2812C122.325 14.9006 122.209 15.6051 122.209 16.3949C122.209 17.196 122.325 17.8977 122.558 18.5C122.797 19.0966 123.146 19.5625 123.607 19.8977C124.072 20.2273 124.643 20.392 125.32 20.392ZM134.601 23V9.90909H137.592V12.0909H137.729C137.967 11.3352 138.376 10.7528 138.956 10.3438C139.541 9.92898 140.209 9.72159 140.959 9.72159C141.129 9.72159 141.32 9.73011 141.53 9.74716C141.746 9.75852 141.925 9.77841 142.067 9.80682V12.6449C141.936 12.5994 141.729 12.5597 141.445 12.5256C141.166 12.4858 140.896 12.4659 140.635 12.4659C140.072 12.4659 139.567 12.5881 139.118 12.8324C138.675 13.071 138.325 13.4034 138.07 13.8295C137.814 14.2557 137.686 14.7472 137.686 15.304V23H134.601Z" fill="black"/>
<path d="M21.25 3.03751H8.75C5 3.03751 2.5 5.53751 2.5 9.28751V16.7875C2.5 20.5375 5 23.0375 8.75 23.0375V25.7C8.75 26.7 9.8625 27.3 10.6875 26.7375L16.25 23.0375H21.25C25 23.0375 27.5 20.5375 27.5 16.7875V9.28751C27.5 5.53751 25 3.03751 21.25 3.03751ZM15 18.25C14.7514 18.25 14.5129 18.1512 14.3371 17.9754C14.1613 17.7996 14.0625 17.5611 14.0625 17.3125C14.0625 17.0639 14.1613 16.8254 14.3371 16.6496C14.5129 16.4738 14.7514 16.375 15 16.375C15.2486 16.375 15.4871 16.4738 15.6629 16.6496C15.8387 16.8254 15.9375 17.0639 15.9375 17.3125C15.9375 17.5611 15.8387 17.7996 15.6629 17.9754C15.4871 18.1512 15.2486 18.25 15 18.25ZM16.575 13.0625C16.0875 13.3875 15.9375 13.6 15.9375 13.95V14.2125C15.9375 14.725 15.5125 15.15 15 15.15C14.4875 15.15 14.0625 14.725 14.0625 14.2125V13.95C14.0625 12.5 15.125 11.7875 15.525 11.5125C15.9875 11.2 16.1375 10.9875 16.1375 10.6625C16.1375 10.0375 15.625 9.52501 15 9.52501C14.375 9.52501 13.8625 10.0375 13.8625 10.6625C13.8625 11.175 13.4375 11.6 12.925 11.6C12.4125 11.6 11.9875 11.175 11.9875 10.6625C11.9875 9.00001 13.3375 7.65001 15 7.65001C16.6625 7.65001 18.0125 9.00001 18.0125 10.6625C18.0125 12.0875 16.9625 12.8 16.575 13.0625Z" fill="black"/>
</svg>
