<svg width="30" height="30" viewBox="0 0 30 30" fill="none" xmlns="http://www.w3.org/2000/svg">
<path d="M21.25 3.03751H8.75C5 3.03751 2.5 5.53751 2.5 9.28751V16.7875C2.5 20.5375 5 23.0375 8.75 23.0375V25.7C8.75 26.7 9.8625 27.3 10.6875 26.7375L16.25 23.0375H21.25C25 23.0375 27.5 20.5375 27.5 16.7875V9.28751C27.5 5.53751 25 3.03751 21.25 3.03751ZM15 18.25C14.7514 18.25 14.5129 18.1512 14.3371 17.9754C14.1613 17.7996 14.0625 17.5611 14.0625 17.3125C14.0625 17.0639 14.1613 16.8254 14.3371 16.6496C14.5129 16.4738 14.7514 16.375 15 16.375C15.2486 16.375 15.4871 16.4738 15.6629 16.6496C15.8387 16.8254 15.9375 17.0639 15.9375 17.3125C15.9375 17.5611 15.8387 17.7996 15.6629 17.9754C15.4871 18.1512 15.2486 18.25 15 18.25ZM16.575 13.0625C16.0875 13.3875 15.9375 13.6 15.9375 13.95V14.2125C15.9375 14.725 15.5125 15.15 15 15.15C14.4875 15.15 14.0625 14.725 14.0625 14.2125V13.95C14.0625 12.5 15.125 11.7875 15.525 11.5125C15.9875 11.2 16.1375 10.9875 16.1375 10.6625C16.1375 10.0375 15.625 9.52501 15 9.52501C14.375 9.52501 13.8625 10.0375 13.8625 10.6625C13.8625 11.175 13.4375 11.6 12.925 11.6C12.4125 11.6 11.9875 11.175 11.9875 10.6625C11.9875 9.00001 13.3375 7.65001 15 7.65001C16.6625 7.65001 18.0125 9.00001 18.0125 10.6625C18.0125 12.0875 16.9625 12.8 16.575 13.0625Z" fill="#4D6F88"/>
</svg>
